<mxfile host="Electron" modified="2024-07-14T18:57:19.394Z" agent="Mozilla/5.0 (Windows NT 10.0; Win64; x64) AppleWebKit/537.36 (KHTML, like Gecko) draw.io/24.6.4 Chrome/124.0.6367.207 Electron/30.0.6 Safari/537.36" etag="qKGAQiuJ5mHBJ--gJ35K" version="24.6.4" type="device">
  <diagram name="Page-1" id="2YBvvXClWsGukQMizWep">
    <mxGraphModel dx="767" dy="484" grid="1" gridSize="10" guides="1" tooltips="1" connect="1" arrows="1" fold="1" page="1" pageScale="1" pageWidth="850" pageHeight="1100" math="0" shadow="0">
      <root>
        <mxCell id="0" />
        <mxCell id="1" parent="0" />
        <mxCell id="N-pm6hz02SYEtQQBp_8q-44" value="React App" style="shape=umlLifeline;perimeter=lifelinePerimeter;whiteSpace=wrap;html=1;container=0;dropTarget=0;collapsible=0;recursiveResize=0;outlineConnect=0;portConstraint=eastwest;newEdgeStyle={&quot;edgeStyle&quot;:&quot;elbowEdgeStyle&quot;,&quot;elbow&quot;:&quot;vertical&quot;,&quot;curved&quot;:0,&quot;rounded&quot;:0};" parent="1" vertex="1">
          <mxGeometry x="305" y="30" width="100" height="360" as="geometry" />
        </mxCell>
        <mxCell id="N-pm6hz02SYEtQQBp_8q-45" value="" style="html=1;points=[];perimeter=orthogonalPerimeter;outlineConnect=0;targetShapes=umlLifeline;portConstraint=eastwest;newEdgeStyle={&quot;edgeStyle&quot;:&quot;elbowEdgeStyle&quot;,&quot;elbow&quot;:&quot;vertical&quot;,&quot;curved&quot;:0,&quot;rounded&quot;:0};" parent="N-pm6hz02SYEtQQBp_8q-44" vertex="1">
          <mxGeometry x="45" y="80" width="10" height="260" as="geometry" />
        </mxCell>
        <mxCell id="N-pm6hz02SYEtQQBp_8q-46" value="user click confirm delete" style="html=1;verticalAlign=bottom;endArrow=block;edgeStyle=elbowEdgeStyle;elbow=vertical;curved=0;rounded=0;" parent="1" source="N-pm6hz02SYEtQQBp_8q-43" target="N-pm6hz02SYEtQQBp_8q-45" edge="1">
          <mxGeometry relative="1" as="geometry">
            <mxPoint x="280" y="120" as="sourcePoint" />
            <Array as="points">
              <mxPoint x="265" y="110" />
            </Array>
            <mxPoint as="offset" />
          </mxGeometry>
        </mxCell>
        <mxCell id="N-pm6hz02SYEtQQBp_8q-47" value="postController" style="shape=umlLifeline;perimeter=lifelinePerimeter;whiteSpace=wrap;html=1;container=0;dropTarget=0;collapsible=0;recursiveResize=0;outlineConnect=0;portConstraint=eastwest;newEdgeStyle={&quot;edgeStyle&quot;:&quot;elbowEdgeStyle&quot;,&quot;elbow&quot;:&quot;vertical&quot;,&quot;curved&quot;:0,&quot;rounded&quot;:0};" parent="1" vertex="1">
          <mxGeometry x="475" y="30" width="100" height="360" as="geometry" />
        </mxCell>
        <mxCell id="N-pm6hz02SYEtQQBp_8q-48" value="" style="html=1;points=[];perimeter=orthogonalPerimeter;outlineConnect=0;targetShapes=umlLifeline;portConstraint=eastwest;newEdgeStyle={&quot;edgeStyle&quot;:&quot;elbowEdgeStyle&quot;,&quot;elbow&quot;:&quot;vertical&quot;,&quot;curved&quot;:0,&quot;rounded&quot;:0};" parent="N-pm6hz02SYEtQQBp_8q-47" vertex="1">
          <mxGeometry x="45" y="80" width="10" height="240" as="geometry" />
        </mxCell>
        <mxCell id="N-pm6hz02SYEtQQBp_8q-49" value="MongoDB" style="shape=umlLifeline;perimeter=lifelinePerimeter;whiteSpace=wrap;html=1;container=0;dropTarget=0;collapsible=0;recursiveResize=0;outlineConnect=0;portConstraint=eastwest;newEdgeStyle={&quot;edgeStyle&quot;:&quot;elbowEdgeStyle&quot;,&quot;elbow&quot;:&quot;vertical&quot;,&quot;curved&quot;:0,&quot;rounded&quot;:0};" parent="1" vertex="1">
          <mxGeometry x="645" y="30" width="100" height="350" as="geometry" />
        </mxCell>
        <mxCell id="N-pm6hz02SYEtQQBp_8q-50" value="" style="html=1;points=[];perimeter=orthogonalPerimeter;outlineConnect=0;targetShapes=umlLifeline;portConstraint=eastwest;newEdgeStyle={&quot;edgeStyle&quot;:&quot;elbowEdgeStyle&quot;,&quot;elbow&quot;:&quot;vertical&quot;,&quot;curved&quot;:0,&quot;rounded&quot;:0};" parent="N-pm6hz02SYEtQQBp_8q-49" vertex="1">
          <mxGeometry x="45" y="80" width="10" height="210" as="geometry" />
        </mxCell>
        <mxCell id="N-pm6hz02SYEtQQBp_8q-51" value="" style="endArrow=classic;html=1;rounded=0;" parent="1" edge="1">
          <mxGeometry relative="1" as="geometry">
            <mxPoint x="360" y="120" as="sourcePoint" />
            <mxPoint x="520" y="120" as="targetPoint" />
          </mxGeometry>
        </mxCell>
        <mxCell id="N-pm6hz02SYEtQQBp_8q-52" value="Sent DELETE request for create&amp;nbsp;&lt;div&gt;new post&lt;/div&gt;" style="edgeLabel;resizable=0;html=1;;align=center;verticalAlign=middle;" parent="N-pm6hz02SYEtQQBp_8q-51" connectable="0" vertex="1">
          <mxGeometry relative="1" as="geometry">
            <mxPoint y="-20" as="offset" />
          </mxGeometry>
        </mxCell>
        <mxCell id="N-pm6hz02SYEtQQBp_8q-53" value="" style="endArrow=classic;html=1;rounded=0;" parent="1" edge="1">
          <mxGeometry relative="1" as="geometry">
            <mxPoint x="530" y="148.82" as="sourcePoint" />
            <mxPoint x="690" y="148.82" as="targetPoint" />
          </mxGeometry>
        </mxCell>
        <mxCell id="N-pm6hz02SYEtQQBp_8q-54" value="execute query" style="edgeLabel;resizable=0;html=1;;align=center;verticalAlign=middle;" parent="N-pm6hz02SYEtQQBp_8q-53" connectable="0" vertex="1">
          <mxGeometry relative="1" as="geometry">
            <mxPoint x="5" y="-20" as="offset" />
          </mxGeometry>
        </mxCell>
        <mxCell id="N-pm6hz02SYEtQQBp_8q-55" value="post not found/ unauthorized" style="html=1;verticalAlign=bottom;endArrow=open;dashed=1;endSize=8;edgeStyle=elbowEdgeStyle;elbow=horizontal;curved=0;rounded=0;" parent="1" edge="1">
          <mxGeometry x="0.0026" relative="1" as="geometry">
            <mxPoint x="180" y="230" as="targetPoint" />
            <Array as="points">
              <mxPoint x="275" y="230" />
            </Array>
            <mxPoint x="350" y="230" as="sourcePoint" />
            <mxPoint as="offset" />
          </mxGeometry>
        </mxCell>
        <mxCell id="N-pm6hz02SYEtQQBp_8q-56" value="return error" style="html=1;verticalAlign=bottom;endArrow=open;dashed=1;endSize=8;edgeStyle=elbowEdgeStyle;elbow=vertical;curved=0;rounded=0;" parent="1" edge="1">
          <mxGeometry x="-0.0039" relative="1" as="geometry">
            <mxPoint x="530" y="190" as="targetPoint" />
            <Array as="points">
              <mxPoint x="605" y="189.69" />
            </Array>
            <mxPoint x="690" y="190" as="sourcePoint" />
            <mxPoint as="offset" />
          </mxGeometry>
        </mxCell>
        <mxCell id="N-pm6hz02SYEtQQBp_8q-57" value="return 404/401 message" style="html=1;verticalAlign=bottom;endArrow=open;dashed=1;endSize=8;edgeStyle=elbowEdgeStyle;elbow=horizontal;curved=0;rounded=0;" parent="1" edge="1">
          <mxGeometry relative="1" as="geometry">
            <mxPoint x="360" y="210" as="targetPoint" />
            <Array as="points">
              <mxPoint x="360" y="210" />
            </Array>
            <mxPoint x="520" y="210" as="sourcePoint" />
            <mxPoint as="offset" />
          </mxGeometry>
        </mxCell>
        <mxCell id="N-pm6hz02SYEtQQBp_8q-58" value="error" style="shape=umlFrame;whiteSpace=wrap;html=1;pointerEvents=0;" parent="1" vertex="1">
          <mxGeometry x="95" y="170" width="660" height="80" as="geometry" />
        </mxCell>
        <mxCell id="N-pm6hz02SYEtQQBp_8q-59" value="success" style="shape=umlFrame;whiteSpace=wrap;html=1;pointerEvents=0;" parent="1" vertex="1">
          <mxGeometry x="95" y="300" width="660" height="100" as="geometry" />
        </mxCell>
        <mxCell id="N-pm6hz02SYEtQQBp_8q-60" value="return success" style="html=1;verticalAlign=bottom;endArrow=open;dashed=1;endSize=8;edgeStyle=elbowEdgeStyle;elbow=vertical;curved=0;rounded=0;" parent="1" edge="1">
          <mxGeometry relative="1" as="geometry">
            <mxPoint x="530" y="320" as="targetPoint" />
            <Array as="points">
              <mxPoint x="625" y="320" />
            </Array>
            <mxPoint x="690" y="320" as="sourcePoint" />
            <mxPoint as="offset" />
          </mxGeometry>
        </mxCell>
        <mxCell id="N-pm6hz02SYEtQQBp_8q-61" value="return message" style="html=1;verticalAlign=bottom;endArrow=open;dashed=1;endSize=8;edgeStyle=elbowEdgeStyle;elbow=vertical;curved=0;rounded=0;" parent="1" edge="1">
          <mxGeometry relative="1" as="geometry">
            <mxPoint x="360" y="350" as="targetPoint" />
            <Array as="points">
              <mxPoint x="405" y="350" />
              <mxPoint x="365" y="350" />
            </Array>
            <mxPoint x="520" y="350" as="sourcePoint" />
            <mxPoint as="offset" />
          </mxGeometry>
        </mxCell>
        <mxCell id="N-pm6hz02SYEtQQBp_8q-62" value="delete successfully" style="html=1;verticalAlign=bottom;endArrow=open;dashed=1;endSize=8;edgeStyle=elbowEdgeStyle;elbow=vertical;curved=0;rounded=0;" parent="1" edge="1">
          <mxGeometry x="0.0026" relative="1" as="geometry">
            <mxPoint x="180" y="370" as="targetPoint" />
            <Array as="points">
              <mxPoint x="205" y="370" />
            </Array>
            <mxPoint x="350" y="370" as="sourcePoint" />
            <mxPoint as="offset" />
          </mxGeometry>
        </mxCell>
        <mxCell id="RRgEXlU96Ht-IF5xkP73-1" value="" style="group" vertex="1" connectable="0" parent="1">
          <mxGeometry x="166" y="30" width="18" height="360" as="geometry" />
        </mxCell>
        <mxCell id="RRgEXlU96Ht-IF5xkP73-2" value="" style="endArrow=none;dashed=1;html=1;rounded=0;" edge="1" parent="RRgEXlU96Ht-IF5xkP73-1">
          <mxGeometry width="50" height="50" relative="1" as="geometry">
            <mxPoint x="9" y="360" as="sourcePoint" />
            <mxPoint x="9" y="58.37837837837838" as="targetPoint" />
          </mxGeometry>
        </mxCell>
        <mxCell id="RRgEXlU96Ht-IF5xkP73-3" value="User" style="shape=umlActor;verticalLabelPosition=bottom;verticalAlign=top;html=1;outlineConnect=0;" vertex="1" parent="RRgEXlU96Ht-IF5xkP73-1">
          <mxGeometry width="18" height="38.91891891891892" as="geometry" />
        </mxCell>
        <mxCell id="N-pm6hz02SYEtQQBp_8q-43" value="" style="html=1;points=[];perimeter=orthogonalPerimeter;outlineConnect=0;targetShapes=umlLifeline;portConstraint=eastwest;newEdgeStyle={&quot;edgeStyle&quot;:&quot;elbowEdgeStyle&quot;,&quot;elbow&quot;:&quot;vertical&quot;,&quot;curved&quot;:0,&quot;rounded&quot;:0};" parent="1" vertex="1">
          <mxGeometry x="170" y="100" width="10" height="270" as="geometry" />
        </mxCell>
      </root>
    </mxGraphModel>
  </diagram>
</mxfile>
